 <svg  version="1.0" xmlns="http://www.w3.org/2000/svg"  width="300.000000pt" height="300.000000pt" viewBox="0 0 300.000000 300.000000"  preserveAspectRatio="xMidYMid meet">  <g transform="translate(0.000000,300.000000) scale(0.100000,-0.100000)" fill="#007bff" stroke="none"> <path d="M829 2190 c-62 -11 -137 -45 -172 -77 -27 -27 -48 -79 -46 -118 0 -11 7 5 14 35 23 93 104 141 272 158 69 7 76 9 33 9 -30 1 -76 -3 -101 -7z"/> <path d="M1091 2181 c35 -11 72 -32 66 -38 -3 -2 -20 4 -39 14 -27 15 -54 17 -153 16 -66 0 -133 -6 -150 -11 -24 -9 -17 -9 30 -4 106 12 237 7 270 -11 17 -9 23 -16 15 -17 -8 0 2 -11 23 -26 21 -14 35 -30 31 -36 -4 -6 -3 -8 3 -5 6 4 18 -9 29 -28 10 -18 21 -32 24 -30 6 4 7 -3 14 -95 4 -43 2 -60 -4 -50 -10 16 -11 14 -13 -29 -1 -30 36 -126 53 -136 23 -14 6 -23 -52 -27 -122 -8 -234 -82 -291 -192 -29 -55 -32 -70 -31 -146 0 -73 4 -93 28 -139 64 -123 177 -194 313 -195 80 -1 80 -2 47 -68 -8 -15 -14 -30 -14 -33 0 -3 37 -5 82 -3 l82 3 20 63 20 63 130 -3 130 -3 20 -62 20 -63 82 0 82 0 -130 323 c-72 177 -136 329 -143 337 -7 8 -25 40 -40 70 -15 30 -37 63 -49 72 -22 19 -95 23 -131 8 -12 -4 5 -6 44 -4 56 4 67 2 88 -17 28 -27 30 -44 4 -29 -37 19 -36 10 2 -15 20 -14 37 -33 37 -42 0 -9 8 -22 18 -29 15 -12 9 -13 -45 -14 -59 0 -61 -1 -72 -30 -5 -17 -40 -104 -77 -195 -75 -185 -75 -185 -183 -185 -187 1 -276 198 -147 326 67 68 159 78 276 31 11 -5 22 10 43 56 27 58 27 62 10 75 -10 7 -43 20 -73 28 -39 11 -64 26 -87 51 l-33 36 0 122 c0 130 -12 187 -38 183 -8 -2 -17 4 -19 12 -4 12 -3 12 5 1 7 -9 12 -10 16 -2 4 6 2 11 -5 11 -7 0 -9 3 -6 6 21 21 -95 115 -139 113 -14 0 -12 -3 7 -8z m113 -76 c22 -34 8 -38 -30 -7 -21 16 -29 29 -22 33 16 10 34 1 52 -26z m154 -476 c60 -15 74 -26 66 -53 -9 -30 -22 -35 -58 -25 -42 12 -123 11 -170 -2 -21 -6 -58 -29 -82 -51 -112 -103 -95 -274 36 -358 83 -54 217 -52 268 3 11 12 40 74 65 137 25 63 56 141 70 173 l26 57 44 0 45 0 41 -97 c73 -177 181 -455 181 -469 0 -9 -11 -14 -30 -14 -26 0 -33 7 -55 49 -38 75 -51 81 -186 81 -133 0 -144 -5 -182 -80 -19 -38 -26 -45 -52 -45 -27 0 -30 3 -27 27 5 44 -25 64 -106 71 -128 11 -221 68 -271 169 -91 182 27 391 241 427 75 12 84 12 136 0z"/> <path d="M1591 1335 c-11 -14 -32 -57 -46 -94 -22 -56 -25 -72 -15 -90 21 -41 92 -53 155 -27 44 19 45 42 9 134 -42 105 -66 123 -103 77z m104 -167 c6 -16 0 -18 -70 -18 -57 0 -76 3 -73 13 3 6 20 52 38 100 l33 88 32 -83 c18 -46 35 -91 40 -100z"/> <path d="M822 2138 c-24 -5 -42 -11 -40 -14 3 -2 34 2 69 10 35 8 53 14 39 14 -14 0 -45 -5 -68 -10z"/> <path d="M990 2130 c25 -8 87 -13 79 -6 -2 2 -26 6 -54 9 -34 4 -42 3 -25 -3z"/> <path d="M699 2113 c-27 -17 -65 -70 -56 -79 3 -3 8 4 12 15 3 11 23 34 43 51 40 33 41 38 1 13z"/> <path d="M908 2123 c12 -2 30 -2 40 0 9 3 -1 5 -23 4 -22 0 -30 -2 -17 -4z"/> <path d="M763 2089 c-44 -22 -84 -73 -82 -105 0 -11 5 -5 10 13 10 36 61 82 111 100 18 6 26 12 18 12 -8 1 -34 -8 -57 -20z"/> <path d="M1021 2106 c2 -2 20 -6 39 -10 25 -4 31 -3 20 4 -14 9 -69 15 -59 6z"/> <path d="M692 2066 c-35 -41 -45 -84 -32 -151 l9 -50 -4 56 c-6 69 7 114 42 151 15 15 24 28 21 28 -3 0 -19 -15 -36 -34z"/> <path d="M830 2090 c-11 -7 -5 -8 20 -4 43 8 51 14 19 14 -13 0 -31 -5 -39 -10z"/> <path d="M963 2083 c15 -2 39 -2 55 0 15 2 2 4 -28 4 -30 0 -43 -2 -27 -4z"/> <path d="M763 2060 c-31 -19 -63 -65 -63 -92 0 -7 9 5 20 28 12 24 35 49 58 62 20 12 33 22 27 22 -5 0 -24 -9 -42 -20z"/> <path d="M878 2053 c-81 -21 -128 -65 -133 -123 -4 -41 -4 -42 3 -10 18 78 47 101 167 131 39 10 59 17 45 17 -14 0 -51 -7 -82 -15z"/> <path d="M1001 2066 c2 -2 22 -6 44 -9 28 -5 34 -4 20 3 -19 8 -73 14 -64 6z"/> <path d="M1157 2058 c4 -7 8 -17 8 -23 0 -5 7 -10 15 -10 8 -1 14 -7 12 -14 -1 -7 2 -9 9 -6 7 5 1 17 -17 36 -29 31 -40 37 -27 17z"/> <path d="M1000 2040 c14 -4 36 -8 50 -8 22 0 22 1 -5 8 -16 4 -39 8 -50 8 -16 0 -15 -2 5 -8z"/> <path d="M875 2025 c-24 -12 -25 -13 -5 -8 14 4 43 10 65 14 l40 6 -35 1 c-19 1 -48 -5 -65 -13z"/> <path d="M1145 2021 c6 -10 2 -12 -16 -7 -21 6 -21 5 -6 -4 9 -6 15 -15 12 -20 -3 -5 0 -12 6 -16 8 -5 9 -3 4 6 -5 8 -3 11 6 8 8 -3 13 -11 11 -17 -1 -7 2 -10 7 -7 5 3 19 -6 31 -21 13 -18 17 -20 11 -7 -5 11 -17 26 -25 33 -9 8 -13 17 -10 22 3 5 0 8 -7 7 -7 -2 -13 2 -14 9 0 6 -4 15 -9 20 -5 5 -6 2 -1 -6z"/> <path d="M905 2010 c-25 -11 1 -11 35 0 20 6 21 8 5 8 -11 0 -29 -3 -40 -8z"/> <path d="M991 2016 c2 -2 29 -6 59 -9 34 -3 47 -2 35 3 -19 8 -103 14 -94 6z"/> <path d="M803 1984 l-28 -25 33 22 c17 13 32 24 32 26 0 8 -11 1 -37 -23z"/> <path d="M870 1968 c-42 -29 -68 -64 -75 -103 -4 -22 -1 -19 10 11 19 50 51 81 102 99 24 9 31 14 17 15 -12 0 -36 -10 -54 -22z"/> <path d="M716 1933 c-8 -50 -7 -113 3 -137 7 -18 8 -18 14 5 4 13 6 35 6 49 -1 20 -3 18 -10 -10 -5 -24 -7 -9 -4 48 5 88 1 105 -9 45z"/> <path d="M628 1953 c-1 -5 -2 -37 -2 -73 -2 -85 -21 -112 -136 -191 -105 -72 -130 -106 -130 -178 0 -64 25 -115 79 -164 40 -36 51 -41 80 -38 7 2 10 -2 6 -8 -6 -11 7 -15 34 -12 7 2 10 -2 6 -8 -4 -7 0 -8 11 -4 11 4 15 3 10 -5 -3 -6 -1 -14 6 -18 7 -4 10 -3 5 1 -4 5 1 18 10 29 17 20 17 20 -1 6 -18 -14 -19 -13 -13 2 3 10 2 20 -4 23 -5 4 -9 3 -8 -2 4 -22 -2 -25 -15 -7 -11 14 -11 21 -3 26 9 6 9 8 0 8 -25 0 -50 65 -57 145 -7 96 3 137 46 184 l33 36 -38 -35 c-47 -43 -59 -86 -51 -186 4 -60 11 -88 30 -116 27 -42 19 -51 -14 -15 -34 36 -52 92 -52 162 0 71 8 95 47 137 14 14 25 29 24 32 -3 19 0 26 9 21 6 -3 13 1 16 9 3 9 10 14 14 11 5 -3 11 -1 15 5 4 6 11 8 16 4 6 -4 6 -11 -2 -20 -6 -8 -8 -14 -4 -14 4 0 -7 -16 -24 -35 -31 -36 -31 -36 -31 -154 l0 -118 41 -44 41 -44 -36 44 -36 45 0 118 0 118 67 70 c45 49 69 68 76 61 12 -12 -30 -64 -43 -56 -4 2 -18 -8 -31 -23 l-24 -27 28 24 c26 24 39 17 15 -7 -7 -7 -13 -62 -14 -157 l-3 -146 44 -44 c38 -36 42 -45 30 -55 -8 -7 -12 -17 -9 -22 6 -9 19 -2 19 10 0 4 4 12 8 19 4 7 -4 20 -20 33 -57 45 -62 62 -60 206 3 130 3 134 33 176 16 24 35 43 41 43 6 0 15 4 20 9 5 6 2 6 -6 1 -11 -6 -13 -4 -8 9 4 10 3 15 -3 11 -5 -3 -15 7 -23 22 -13 25 -15 25 -21 7 -4 -13 -15 -20 -31 -20 -14 0 -24 5 -21 11 2 5 8 9 13 8 6 -1 8 10 6 25 -3 26 -3 26 6 5 14 -32 23 -29 11 3 -6 14 -8 44 -5 67 4 34 3 37 -5 17 -8 -22 -9 -21 -7 13 3 33 0 50 -5 30z m12 -216 c-24 -23 -38 -35 -32 -26 17 23 -7 45 -28 26 -8 -6 -7 -2 3 9 12 15 27 21 48 19 19 -2 33 3 36 12 3 7 8 11 11 8 3 -3 -14 -25 -38 -48z m-124 -52 c-1 -8 -11 -25 -23 -37 -35 -39 -43 -64 -43 -135 0 -83 23 -137 75 -180 26 -22 33 -33 24 -38 -8 -5 -10 -4 -5 3 4 7 1 13 -6 14 -7 0 -17 2 -23 3 -5 2 -15 3 -22 4 -23 2 -84 64 -103 104 -12 25 -20 62 -20 95 0 51 2 55 54 108 37 37 60 52 71 48 9 -4 15 -3 14 2 -2 13 0 24 5 24 2 0 3 -7 2 -15z"/> <path d="M447 1631 c-41 -46 -53 -96 -37 -166 11 -51 57 -132 67 -121 4 3 -3 16 -15 29 -25 27 -37 57 -46 117 -8 59 6 106 46 147 17 18 29 33 26 33 -3 0 -21 -17 -41 -39z"/> <path d="M859 1921 c-22 -21 -39 -45 -39 -52 0 -8 9 0 19 17 10 17 32 40 47 52 16 12 25 22 20 22 -4 0 -26 -17 -47 -39z"/> <path d="M961 1953 c-40 -8 -99 -51 -116 -82 -22 -44 -18 -49 8 -10 72 107 219 114 322 15 25 -23 45 -40 45 -36 0 3 -13 19 -30 35 -16 15 -28 33 -27 39 1 6 -4 10 -11 8 -7 -1 -25 4 -41 12 -31 17 -113 27 -150 19z"/> <path d="M755 1825 c2 -16 7 -41 11 -55 4 -17 3 -21 -4 -12 -7 11 -10 11 -15 -3 -4 -9 -3 -14 2 -10 5 3 11 -1 14 -7 2 -7 9 4 16 25 7 21 10 41 7 44 -3 4 -6 -2 -7 -13 -1 -11 -7 -2 -15 21 -11 31 -13 33 -9 10z"/> <path d="M807 1837 c-9 -24 10 -162 26 -192 21 -39 21 -28 1 21 -11 26 -15 57 -12 96 3 36 1 53 -5 46 -5 -8 -6 -3 -3 15 7 28 2 37 -7 14z"/> <path d="M781 1704 c-1 -41 29 -148 36 -127 3 7 -1 22 -8 35 -7 12 -15 47 -19 78 -7 50 -7 51 -9 14z"/> <path d="M746 1688 c-4 -20 0 -53 10 -85 17 -53 17 -54 -10 -116 -30 -72 -32 -87 -10 -128 20 -40 12 -47 -15 -13 -24 30 -28 93 -9 127 8 14 13 63 13 129 0 66 -3 101 -9 91 -5 -9 -6 -51 -2 -94 5 -60 3 -87 -9 -115 -24 -57 -19 -105 14 -151 16 -23 27 -44 23 -47 -11 -12 -10 -35 2 -30 12 5 36 -19 149 -150 27 -31 53 -56 58 -56 6 0 -7 17 -28 38 -71 72 -152 169 -146 175 3 4 15 1 27 -5 11 -6 18 -7 14 -3 -4 5 -3 14 2 20 7 8 3 18 -12 31 -13 12 -18 13 -13 4 13 -20 15 -40 5 -40 -13 0 -30 26 -23 34 4 4 -1 4 -12 0 -15 -6 -17 -4 -12 10 4 9 0 31 -9 48 -18 36 -15 63 16 135 23 50 23 52 6 105 -10 33 -14 66 -10 86 4 17 4 32 2 32 -3 0 -8 -15 -12 -32z m27 -404 c11 -11 -3 -24 -18 -18 -8 4 -12 10 -9 15 6 11 18 12 27 3z"/> <path d="M664 1644 c-4 -14 -1 -43 5 -65 10 -32 9 -49 -4 -91 -8 -28 -15 -63 -14 -77 0 -14 8 3 16 39 9 36 15 77 14 93 -4 99 -6 127 -8 127 -2 0 -6 -12 -9 -26z"/> <path d="M586 1635 c-3 -9 -5 -35 -5 -58 2 -40 2 -39 9 13 7 59 6 71 -4 45z"/> <path d="M1505 1614 c75 -20 88 -23 79 -14 -5 5 -29 11 -54 14 -25 3 -36 3 -25 0z"/> <path d="M856 1583 c5 -24 -1 -44 -25 -86 -17 -30 -31 -58 -31 -63 0 -5 16 18 35 51 36 62 42 89 25 115 -7 11 -8 6 -4 -17z"/> <path d="M581 1480 c-12 -56 1 -105 39 -145 26 -28 27 -30 10 -49 -21 -27 -20 -43 3 -63 21 -18 21 -18 7 1 -13 17 -13 19 0 14 8 -2 25 -22 37 -44 25 -44 31 -39 8 6 -9 17 -13 30 -9 30 4 0 1 6 -5 13 -6 8 -9 17 -6 21 3 3 -1 2 -7 -4 -18 -15 -27 -12 -23 8 2 9 4 18 5 20 9 10 4 30 -11 47 -36 41 -50 91 -39 141 6 26 9 49 6 51 -2 2 -9 -19 -15 -47z"/> <path d="M775 1464 c-22 -46 -25 -61 -16 -78 11 -21 11 -21 5 1 -3 13 5 43 20 75 14 29 24 54 22 56 -2 2 -16 -22 -31 -54z"/> <path d="M1400 1376 c-5 -7 -6 -17 -2 -21 4 -5 -1 -5 -10 -2 -11 4 -17 2 -15 -6 1 -7 -3 -11 -10 -10 -6 1 -17 -4 -23 -12 -7 -8 -9 -15 -6 -15 4 0 2 -6 -4 -12 -6 -7 -19 -29 -28 -48 l-17 -35 -70 3 c-83 4 -81 -9 2 -15 32 -2 66 -5 76 -7 11 -3 17 2 17 14 0 9 9 29 21 44 11 14 15 26 9 26 -6 0 -8 5 -5 10 5 8 11 7 21 -1 15 -12 16 -11 18 23 0 12 7 23 14 26 7 2 12 0 11 -5 -3 -19 2 -23 20 -13 11 5 18 18 17 27 -2 10 3 23 11 28 10 8 8 10 -12 11 -13 1 -29 -4 -35 -10z m26 -21 c0 -13 -5 -26 -11 -29 -8 -2 -11 6 -9 22 3 33 2 32 12 32 4 0 8 -11 8 -25z m-60 -51 c2 -12 -1 -13 -12 -3 -7 6 -11 16 -8 21 7 11 17 3 20 -18z"/> <path d="M801 1358 c-1 -10 12 -33 29 -51 16 -19 26 -38 22 -42 -4 -5 -1 -5 6 -1 11 6 8 14 -12 35 -13 14 -29 37 -35 51 -6 17 -10 19 -10 8z"/> <path d="M852 1228 c13 -10 32 -23 43 -29 11 -5 8 0 -8 11 -15 12 -25 25 -23 29 3 4 -4 7 -15 7 -19 0 -18 -1 3 -18z"/> <path d="M749 1211 c11 -15 32 -57 46 -94 29 -72 69 -114 117 -124 l29 -6 -23 -24 c-12 -13 -28 -21 -36 -18 -7 2 -10 0 -7 -5 4 -6 -13 -10 -44 -10 -42 0 -53 4 -74 30 -30 35 -33 45 -42 122 -3 32 -10 60 -14 63 -4 2 -4 -17 0 -43 5 -26 11 -64 14 -84 9 -55 55 -98 108 -99 33 0 38 -2 22 -9 -11 -5 -33 -9 -50 -10 -16 -1 -24 -4 -17 -7 26 -10 81 8 128 44 26 20 71 51 101 69 l53 32 -36 4 c-33 4 -34 3 -18 -10 18 -13 17 -13 -11 -12 -43 3 -53 0 -30 -10 16 -7 12 -9 -19 -9 -52 -1 -100 30 -125 82 -38 80 -55 122 -55 136 -1 8 -9 15 -19 17 -16 2 -16 0 2 -25z"/> <path d="M816 1148 c35 -65 94 -128 116 -128 7 1 3 6 -10 13 -29 17 -74 71 -100 124 -12 23 -26 44 -32 48 -5 3 6 -23 26 -57z"/> <path d="M666 1148 c8 -28 17 -54 20 -57 4 -3 4 3 1 14 -3 11 -8 35 -12 52 -4 18 -10 35 -14 38 -4 2 -2 -19 5 -47z"/> <path d="M756 1127 c13 -40 29 -83 36 -96 13 -24 63 -61 83 -61 6 0 -3 8 -20 19 -47 29 -62 51 -85 129 -12 39 -25 74 -30 77 -4 2 3 -28 16 -68z"/> <path d="M714 1175 c3 -11 13 -51 21 -89 17 -75 37 -111 69 -128 14 -8 10 -1 -11 20 -24 25 -35 48 -48 109 -9 43 -21 85 -27 93 -7 12 -8 11 -4 -5z"/> <path d="M681 1023 c0 -17 3 -42 8 -55 11 -29 48 -68 64 -68 6 0 1 7 -11 16 -28 20 -44 49 -53 99 -6 37 -7 38 -8 8z"/> <path d="M1015 777 c-13 -10 -16 -21 -11 -40 7 -28 42 -45 59 -28 8 8 4 11 -16 11 -22 0 -27 5 -27 25 0 20 5 25 26 25 14 0 23 4 19 10 -9 14 -28 12 -50 -3z"/> <path d="M1106 774 c-9 -8 -16 -21 -16 -28 0 -15 32 -46 47 -46 13 0 43 33 43 48 0 15 -29 42 -45 42 -7 0 -21 -7 -29 -16z m52 -28 c-2 -13 -12 -22 -25 -24 -19 -3 -23 1 -23 21 0 14 6 27 13 30 22 7 38 -5 35 -27z"/> <path d="M1207 783 c-4 -3 -7 -21 -7 -40 0 -39 19 -51 56 -35 26 13 33 49 12 70 -13 13 -50 16 -61 5z m58 -39 c0 -12 -8 -20 -22 -22 -20 -3 -23 1 -23 27 0 27 2 30 23 22 12 -5 22 -17 22 -27z"/> <path d="M1312 748 c3 -39 6 -43 31 -46 15 -2 27 1 27 7 0 6 -11 11 -25 11 -31 0 -33 17 -2 23 l22 4 -23 2 c-14 0 -22 6 -19 14 2 6 14 11 25 9 12 -2 22 2 22 7 0 6 -14 11 -31 11 -29 0 -30 -1 -27 -42z"/> <path d="M1447 755 c-18 -38 -23 -71 -6 -42 5 9 15 17 21 17 6 0 20 -8 31 -17 20 -17 20 -17 13 2 -5 11 -13 32 -18 48 -13 36 -21 34 -41 -8z"/> <path d="M1542 778 c-32 -32 3 -87 45 -71 15 6 12 8 -12 13 -41 7 -43 44 -2 48 15 2 25 8 22 13 -9 13 -39 11 -53 -3z"/> <path d="M1630 750 c-20 -39 -16 -52 8 -28 10 10 17 10 32 0 11 -7 20 -10 20 -8 0 9 -31 76 -35 76 -2 0 -14 -18 -25 -40z"/> <path d="M1722 748 c4 -50 25 -61 58 -28 19 19 20 24 7 43 -8 12 -26 23 -41 25 -26 3 -27 2 -24 -40z m53 -4 c0 -12 -8 -20 -22 -22 -20 -3 -23 1 -23 27 0 27 2 30 23 22 12 -5 22 -17 22 -27z"/> <path d="M1822 748 c3 -39 6 -43 31 -46 15 -2 27 1 27 7 0 6 -11 11 -25 11 -31 0 -33 20 -2 21 l22 0 -23 10 c-28 11 -21 29 8 22 11 -3 20 0 20 6 0 6 -14 11 -31 11 -29 0 -30 -1 -27 -42z"/> <path d="M1912 745 c0 -41 2 -45 7 -20 6 28 7 29 19 10 12 -20 12 -20 27 -1 15 19 15 19 15 -2 0 -12 3 -22 8 -22 4 0 6 19 4 42 l-4 41 -17 -26 c-15 -26 -31 -35 -31 -19 0 5 -7 17 -15 28 -13 17 -14 15 -13 -31z"/> <path d="M2025 775 c4 -11 10 -30 12 -42 7 -32 16 -29 33 10 7 17 15 35 18 40 2 4 -1 7 -6 7 -6 0 -14 -10 -18 -22 l-6 -21 -20 24 c-16 20 -19 21 -13 4z"/> </g> </svg> 